# xmcd
#
# Track frame offsets:
#	150
#	14403
#	28996
#	44898
#	60835
#	74626
#	86745
#	102025
#	119998
#	136743
#	149149
#	163245
#	175372
#	186097
#	198100
#	211381
#	223333
#	236551
#	256144
#	266637
#
# Disc length: 3755 seconds
#
# Revision: 1
# Processed by: cddbd v1.5.2PL0 Copyright (c) Steve Scherf et al.
# Submitted via: audiograbber 1.83.01
#
DISCID=420ea914
DTITLE=Various Artist - Big Country Volume 2
DYEAR=1900
DGENRE=Country
TTITLE0=Eddie Rabbitt - I Love A Rainy Night
TTITLE1=Glen Campbell - Rhinestone Cowboy
TTITLE2=Kenny Rogers - The Gambler
TTITLE3=The Band - The Night They Drove Old Dixie Down
TTITLE4=The Highwaymen - Highwayman
TTITLE5=Dolly Parton - Jolene
TTITLE6=Juice Newton - Queen Of Hearts
TTITLE7=Billy Swan - I Can Help
TTITLE8=Oak Ridge Boys - Elvira
TTITLE9=Johnny Cash, June Carter Cash - Jackson
TTITLE10=George Jones - The Grand Tour
TTITLE11=Merle Haggard - Okie From Muskogee
TTITLE12=Porter Wagoner - Green, Green, Grass Of Home
TTITLE13=Marie Osmond - Paper Roses
TTITLE14=Tanya Tucker - Delta Dawn
TTITLE15=Mickey Gilley - That's All That Matters
TTITLE16=Charlie Rich - Behind Closed Doors
TTITLE17=Willie Nelson - Georgia On My Mind
TTITLE18=Jerry Reed - When You're Hot, You're Hot
TTITLE19=Waylon Jennings - Luckenbach, Texas (Back To The Basics Of Love)
EXTD=
EXTT0=
EXTT1=
EXTT2=
EXTT3=
EXTT4=
EXTT5=
EXTT6=
EXTT7=
EXTT8=
EXTT9=
EXTT10=
EXTT11=
EXTT12=
EXTT13=
EXTT14=
EXTT15=
EXTT16=
EXTT17=
EXTT18=
EXTT19=
PLAYORDER=
